<svg enable-background="new 0 0 240 50" viewBox="0 0 240 50" xmlns="http://www.w3.org/2000/svg"><g fill="#fff"><path d="m165.8 20c2-3.4-.8-5.7-3.5-5.7h-27c-4.9 0-6.7 2.7-8.3 5.5l-5.7 9.9c-2 3.4.8 5.7 3.5 5.7h27c4.9 0 6.7-2.7 8.3-5.5zm-19.2 10.2c-.3.5-.9 1.3-2.3 1.3h-7.6c-3.1 0-2-2.1-1.5-2.8l5.2-9c.3-.5.9-1.3 2.3-1.3h7.6c3.1 0 2 2.1 1.5 2.8z"/><path d="m51.1 21.4c-2 3.4.8 5.7 3.5 5.7h14.9c3.1 0 2 2.1 1.5 2.8-.4.8-.8 1.5-.8 1.5h-24.9l-2.3 4h38.1l4.1-7c2-3.4-.8-5.7-3.5-5.7h-14.9c-3.1 0-2-2.1-1.5-2.8 0 0 .9-1.5.9-1.5h23.8l2.3-4h-32.1c-4.9 0-6.7 2.7-8.3 5.5z"/><path d="m106.7 19.6c.3-.5.9-1.3 2.3-1.3h15.1l2.3-4.1h-24.8c-4.9 0-6.7 2.7-8.3 5.5l-5.7 9.9c-2 3.4.8 5.7 3.5 5.7h23.2l2.3-4c-4.4 0-11.3 0-13.5 0-3.1 0-2-2.1-1.5-2.8z"/><path d="m170.7 14.3-2.3 4h11.7l-9.8 17.1h13.3l9.9-17.1h9.3l2.3-4z"/><path d="m208.1 14.3-2.3 4h9l-9.8 17.1h13.3l9.9-17.1h9.3l2.3-4z"/><path d="m15.2 31.7c.8-1.4.8-3.1 0-4.6l-3.5-6c-.3-.5-.4-1-.4-1.5s.1-1 .4-1.5l3.9-6.7s.2-.5 1-1 1.6-.5 1.6-.5h9.6l5.4-9.3h-19.2c-1.7 0-3.2.9-4.1 2.2l-7.1 12.4c-1 1.6-1.5 3.6-1.5 5.6 0 2.1.5 3.9 1.5 5.6l7.7 13.3z"/><path d="m35.6 34.5c1-1.6 1.5-3.6 1.5-5.6 0-2.1-.5-3.9-1.5-5.6l-7.7-13.3-4.7 8c-.8 1.4-.8 3.1 0 4.6l3.5 6c.3.5.4 1 .4 1.5s-.1 1-.4 1.5l-3.9 6.7s-.3.5-1 1c-.8.5-1.6.5-1.6.5h-9.6l-5.4 9.3h19.2c1.7 0 3.2-.9 4.1-2.2z"/></g></svg>