<svg xmlns:xlink="http://www.w3.org/1999/xlink" xmlns="http://www.w3.org/2000/svg" id="yeti-logo" viewBox="0 0 106 41" aria-label="Yeti Cycles" data-v-6c1e203e="" data-v-760c8536="" width="110"  height="42" ><path d="M24.45,19.6l-2,3.25H12.74l2.53-4.19L10.7,12h8.42Zm4.21-7.65h8L25.14,18.67l-2.42-3.47Zm9.94,10.9H31.5L38.11,12h7.17Zm51.17,0H80.64L87.35,12h9ZM85.24,12l-1.72,2.86h-24L61.28,12ZM76.74,16l-4.15,6.8H62.74L66.85,16ZM59.35,12l-1.76,2.86H44.8L46.56,12ZM44,16H54.66L53,18.8H42.35Zm-2.47,4H54.36l-1.72,2.79H39.86Z" transform="translate(-0.92)" data-v-6c1e203e="" fill="#F7F7F6"></path> <polygon points="11.88 28.07 12.17 27.6 9.6 27.6 10.46 26.18 13.02 26.18 13.3 25.7 10.1 25.7 8.68 28.07 11.88 28.07" data-v-6c1e203e="" fill="#F7F7F6"></polygon> <polygon points="26.65 28.07 28.06 25.7 27.42 25.7 26.29 27.6 24.37 27.6 25.5 25.7 24.86 25.7 23.44 28.07 24.73 28.07 24.16 29.02 24.8 29.02 25.37 28.07 26.65 28.07" data-v-6c1e203e="" fill="#F7F7F6"></polygon> <polygon points="41.41 28.07 41.69 27.6 39.13 27.6 39.98 26.18 42.54 26.18 42.83 25.7 39.62 25.7 38.2 28.07 41.41 28.07" data-v-6c1e203e="" fill="#F7F7F6"></polygon> <polygon points="56.74 28.07 57.02 27.6 54.45 27.6 55.59 25.7 54.95 25.7 53.53 28.07 56.74 28.07" data-v-6c1e203e="" fill="#F7F7F6"></polygon> <path d="M71.85,28.07l.28-.47H69.57l.28-.47h2.56l.85-1.42h-3.2l-1.42,2.37Zm.21-1.42H70.14l.28-.47h1.92Z" transform="translate(-0.92)" data-v-6c1e203e="" fill="#F7F7F6"></path> <polygon points="85.69 28.07 86.54 26.65 83.98 26.65 84.27 26.18 86.82 26.18 87.11 25.7 83.91 25.7 83.06 27.12 85.61 27.12 85.34 27.6 82.77 27.6 82.49 28.07 85.69 28.07" data-v-6c1e203e="" fill="#F7F7F6"></polygon></svg>